<?xml version="1.0" encoding="UTF-8"?>
<svg xmlns="http://www.w3.org/2000/svg" viewBox="0 0 512 512">
  <!-- Tail main -->
  <path d="M380 60
           C300 60 240 110 240 180
           C240 250 300 300 360 300
           C420 300 470 250 470 190
           C470 130 430 80 380 60
           Z" fill="#a55a2a"/>
  <!-- Tail inner shadow -->
  <path d="M420 200
           C420 250 380 280 340 280
           C320 280 300 270 285 255
           C320 260 350 240 370 210
           C385 190 390 165 380 140
           C395 155 420 175 420 200
           Z" fill="#8d4721"/>
  <!-- Body -->
  <path d="M260 150
           C200 150 150 200 150 260
           C150 340 220 420 300 420
           C330 420 360 410 380 390
           C390 345 380 300 360 270
           C340 235 310 215 280 210
           C280 190 275 170 260 150
           Z" fill="#e49a6d"/>
  <!-- Belly -->
  <path d="M245 220
           C205 240 180 285 185 330
           C190 375 215 410 260 410
           C295 410 320 390 330 360
           C310 330 290 310 260 300
           C250 265 240 240 245 220
           Z" fill="#ffe8d1"/>
  <!-- Head -->
  <circle cx="210" cy="140" r="80" fill="#e49a6d"/>
  <!-- Ear back -->
  <path d="M185 60
           C175 40 145 40 135 60
           C125 80 140 110 160 110
           C175 110 195 90 185 60
           Z" fill="#d68555"/>
  <!-- Ear front -->
  <path d="M260 70
           C250 50 220 50 210 70
           C200 90 215 110 235 110
           C250 110 270 90 260 70
           Z" fill="#d68555"/>
  <!-- Eye -->
  <circle cx="240" cy="140" r="18" fill="#3b3b3b"/>
  <!-- Front leg -->
  <path d="M190 340
           Q210 330 225 345
           Q215 365 200 375
           Q180 365 190 340
           Z" fill="#e49a6d"/>
  <!-- Hind leg -->
  <path d="M300 390
           Q280 400 290 430
           Q325 440 350 430
           Q340 400 300 390
           Z" fill="#e49a6d"/>
</svg>
